<?xml version="1.0" encoding="iso-8859-1"?>
<!DOCTYPE svg PUBLIC "-//W3C//DTD SVG 1.1//EN" "http://www.w3.org/Graphics/SVG/1.1/DTD/svg11.dtd">
<svg 
 version="1.1" xmlns="http://www.w3.org/2000/svg" xmlns:xlink="http://www.w3.org/1999/xlink" x="0px" y="0px" width="512px"
	 height="512px" viewBox="0 0 512 512" enable-background="new 0 0 512 512" xml:space="preserve"
><g id="b75708d097f2188dff6617b0f00c8b79"><g></g><path display="inline" d="M475.062,313.527l-8.862-50.262c-1.757-9.965-11.349-16.682-21.314-14.923l-15.657,2.76
		c-0.281,0.05-0.532,0.167-0.806,0.229l-3.079-17.469c0.28-0.036,0.553-0.011,0.833-0.061l15.662-2.76
		c9.965-1.757,16.682-11.349,14.924-21.314l-8.861-50.258c-1.758-9.965-11.35-16.682-21.314-14.925l-15.662,2.76
		c-0.28,0.05-0.531,0.167-0.809,0.228l-3.076-17.455c0.28-0.036,0.554-0.023,0.834-0.074l15.658-2.76
		c9.965-1.757,16.682-11.349,14.925-21.314l-8.858-50.258c-1.571-8.898-9.38-15.205-18.131-15.205
		c-1.049,0.002-2.116,0.092-3.184,0.28l-15.662,2.76c-0.323,0.058-0.61,0.189-0.927,0.263
		c-6.336-28.583-34.306-47.561-63.407-42.431L91.02,43.175c-0.831,0.147-1.623,0.377-2.438,0.559L88.56,43.61L36.659,52.76
		l9.583,54.35c0.001,0.004,0.001,0.007,0.001,0.011l21.083,119.569l42.541,241.26c5.035,28.545,32.505,47.782,61.05,42.751
		l242.196-42.707c28.545-5.035,47.778-32.506,42.747-61.051l-9.585-54.352c0-0.003,0-0.007,0-0.011l-2.63-14.917
		c0.28-0.036,0.553-0.011,0.833-0.062l15.658-2.76C470.103,333.084,476.818,323.493,475.062,313.527z M411.478,58.868l8.858,50.254
		l-15.657,2.762l-8.862-50.256L411.478,58.868z M151.507,173.189c17.753-25.461,43.614-41.188,77.588-47.178
		c31.435-5.545,58.352-1.621,80.748,11.762c22.399,13.387,36.02,33.832,40.868,61.341c3.992,22.619,1.25,41.809-8.216,57.567
		c-9.47,15.763-22.979,25.192-40.53,28.29c-8.646,1.521-16.085,0.445-22.316-3.228c-6.231-3.672-10.217-9.182-11.964-16.53
		l-0.783,0.14c-3.177,17.757-12.794,28.053-28.862,30.885c-12.053,2.127-22.54-0.528-31.459-7.957
		c-8.919-7.436-14.741-18.878-17.465-34.334c-3.529-19.999-1.287-37.167,6.72-51.498c8.007-14.332,19.219-22.773,33.626-25.311
		c13.017-2.296,22.08,1.373,27.202,11.007l0.524-0.093l-0.981-13.203l29.477-5.193c2.63,37.896,4.952,62.563,6.972,74.002
		c2.152,12.226,6.551,17.753,13.188,16.585c6.986-1.232,11.935-6.878,14.842-16.937c2.911-10.059,3.048-22.554,0.417-37.486
		c-3.604-20.434-13.063-36.03-28.379-46.793c-15.313-10.76-34.633-14.084-57.946-9.976c-24.977,4.402-44.207,16.779-57.683,37.119
		c-13.473,20.341-18.004,43.042-13.584,68.105c4.28,24.279,14.968,42.114,32.056,53.507c17.092,11.392,38.521,14.816,64.285,10.278
		c19.65-3.469,36.976-10.394,51.983-20.786l4.413,25.022c-13.814,9.01-32.462,15.586-55.954,19.727
		c-32.226,5.682-60.077,1.067-83.548-13.836c-23.474-14.907-37.96-37.946-43.459-69.126
		C127.685,227.274,133.754,198.65,151.507,173.189z M409.451,447.235l-242.192,42.704c-17.171,3.026-33.603-8.478-36.631-25.648
		l31.14-5.491l-0.021-0.126c0.827-0.107,1.651-0.161,2.481-0.309l237.271-41.838c12.668-2.235,23.553-8.715,31.531-17.685
		l2.073,11.758C438.129,427.771,426.625,444.206,409.451,447.235z M259.988,218.488c2.602,14.756,2.325,26.964-0.838,36.617
		c-3.159,9.652-8.848,15.201-17.052,16.649c-5.33,0.938-10.088-0.633-14.274-4.711c-4.183-4.079-7.019-10.311-8.496-18.691
		c-2.081-11.791-1.441-22.601,1.916-32.419c3.356-9.821,8.963-15.424,16.822-16.811c5.416-0.956,10.116,0.287,14.098,3.727
		C256.149,206.287,258.755,211.502,259.988,218.488z"></path></g></svg>